<svg width="3735" height="826" viewBox="0 0 3735 826" fill="none" xmlns="http://www.w3.org/2000/svg">
<path d="M1398.38 282.304V198.364H1759.82V282.304H1630.15V626H1528.25V282.304H1398.38ZM1925.42 198.364V626H1822.06V198.364H1925.42ZM2002.06 198.364H2130.06L2238.64 463.131H2243.65L2352.23 198.364H2480.23V626H2379.59V363.321H2376.04L2273.3 623.286H2208.99L2106.26 361.859H2102.71V626H2002.06V198.364ZM2556.46 626V198.364H2733.11C2765.13 198.364 2792.76 204.141 2816.01 215.695C2839.39 227.109 2857.42 243.535 2870.09 264.973C2882.76 286.271 2889.09 311.537 2889.09 340.77C2889.09 370.42 2882.62 395.616 2869.67 416.358C2856.73 436.96 2838.35 452.69 2814.55 463.548C2790.74 474.267 2762.55 479.626 2729.98 479.626H2618.27V398.192H2710.77C2726.36 398.192 2739.38 396.173 2749.82 392.136C2760.4 387.96 2768.4 381.696 2773.83 373.344C2779.26 364.852 2781.97 353.994 2781.97 340.77C2781.97 327.545 2779.26 316.618 2773.83 307.987C2768.4 299.217 2760.4 292.675 2749.82 288.359C2739.24 283.905 2726.22 281.678 2710.77 281.678H2659.82V626H2556.46ZM2797.22 430.557L2903.71 626H2790.95L2686.55 430.557H2797.22ZM3050.04 626H2938.96L3083.24 198.364H3220.85L3365.13 626H3254.05L3153.61 306.108H3150.27L3050.04 626ZM3035.22 457.702H3267.41V536.213H3035.22V457.702ZM3422.93 626V198.364H3714.85V282.304H3526.29V370.003H3696.26V454.152H3526.29V626H3422.93Z" fill="#cacaca"/>
<circle cx="412.857" cy="412.857" r="322.857" stroke="#9D96F6" stroke-width="180"/>
<circle opacity="0.2" cx="743.143" cy="412.857" r="322.857" stroke="#00B28F" stroke-width="180"/>
</svg>
