<svg width="81" height="86" viewBox="0 0 81 86" fill="none" xmlns="http://www.w3.org/2000/svg">
<circle cx="29.1429" cy="27.1429" r="21.1429" stroke="#9d96f6" stroke-width="12"/>
<circle opacity="0.2" cx="50.8572" cy="27.1429" r="21.1429" stroke="#00b28f" stroke-width="12"/>
<path d="M8.38965 62.3594V78H5.17773V62.3594H8.38965ZM13.2021 62.3594V64.8838H0.44043V62.3594H13.2021ZM18.9058 62.3594V78H15.6939V62.3594H18.9058ZM35.0939 62.3594V78H31.8712L25.587 67.5156V78H22.3644V62.3594H25.587L31.882 72.8545V62.3594H35.0939ZM38.3376 62.3594H44.1706C45.3665 62.3594 46.3942 62.5384 47.2536 62.8965C48.1201 63.2546 48.7861 63.7845 49.2516 64.4863C49.7171 65.1882 49.9499 66.0511 49.9499 67.0752C49.9499 67.9131 49.8067 68.6328 49.5202 69.2344C49.2409 69.8288 48.8434 70.3265 48.3278 70.7275C47.8193 71.1214 47.2214 71.4365 46.5339 71.6729L45.5134 72.21H40.443L40.4216 69.6963H44.1921C44.7578 69.6963 45.2269 69.596 45.5993 69.3955C45.9717 69.195 46.251 68.9157 46.4372 68.5576C46.6305 68.1995 46.7272 67.7842 46.7272 67.3115C46.7272 66.8102 46.6341 66.377 46.4479 66.0117C46.2617 65.6465 45.9789 65.3672 45.5993 65.1738C45.2197 64.9805 44.7435 64.8838 44.1706 64.8838H41.5602V78H38.3376V62.3594ZM47.0817 78L43.5153 71.0283L46.9206 71.0068L50.53 77.8496V78H47.0817ZM59.2307 65.0342L54.9768 78H51.55L57.3616 62.3594H59.5422L59.2307 65.0342ZM62.7649 78L58.5002 65.0342L58.1565 62.3594H60.3586L66.2024 78H62.7649ZM62.5715 72.1777V74.7021H54.3108V72.1777H62.5715ZM71.3152 62.3594V78H68.0926V62.3594H71.3152ZM77.5457 69.041V71.5547H70.4344V69.041H77.5457ZM78.2977 62.3594V64.8838H70.4344V62.3594H78.2977Z" fill="#9d96f6"/>
</svg>
