<svg width="158" height="50.6" viewBox="0 0 1580 506" fill="none" xmlns="http://www.w3.org/2000/svg">
<g filter="url(#filter0_d_801_19)">
<path d="M225.813 501.749L448.367 379.003V123.339L225.684 0L3 123.426V379.003L225.813 501.749Z" fill="url(#paint0_linear_801_19)"/>
</g>
<g filter="url(#filter1_d_801_19)">
<path d="M145.172 96.3197H219.751L257.627 188.86L315.961 331.375L356.581 319.222L370.435 361.475L281.856 389.175L225.371 250.543L139.713 373.969H80.4551L200.791 191.928L184.648 143.271H145.143L145.172 96.3197Z" fill="#020816"/>
</g>
<path d="M682.398 189.491C682.398 186.317 681.91 183.469 680.934 180.946C680.038 178.342 678.329 175.982 675.807 173.866C673.284 171.669 669.744 169.512 665.187 167.396C660.629 165.281 654.729 163.083 647.486 160.805C639.43 158.201 631.78 155.271 624.537 152.016C617.376 148.76 611.028 144.976 605.494 140.663C600.042 136.269 595.729 131.182 592.555 125.404C589.462 119.626 587.916 112.912 587.916 105.263C587.916 97.8571 589.544 91.1432 592.799 85.1211C596.054 79.0176 600.611 73.8092 606.471 69.4961C612.33 65.1016 619.247 61.7243 627.223 59.3643C635.279 57.0042 644.109 55.8242 653.712 55.8242C666.814 55.8242 678.248 58.1842 688.014 62.9043C697.779 67.6243 705.348 74.0941 710.719 82.3135C716.171 90.5329 718.897 99.9323 718.897 110.512H682.521C682.521 105.303 681.422 100.746 679.225 96.8398C677.109 92.8522 673.854 89.7191 669.459 87.4404C665.146 85.1618 659.693 84.0225 653.102 84.0225C646.754 84.0225 641.464 84.999 637.232 86.9521C633.001 88.8239 629.827 91.3874 627.711 94.6426C625.595 97.8164 624.537 101.397 624.537 105.385C624.537 108.396 625.27 111.122 626.734 113.563C628.281 116.005 630.559 118.284 633.57 120.399C636.581 122.515 640.284 124.509 644.679 126.381C649.073 128.253 654.16 130.084 659.938 131.874C669.622 134.804 678.126 138.1 685.45 141.762C692.856 145.424 699.041 149.534 704.005 154.091C708.969 158.648 712.713 163.816 715.235 169.594C717.758 175.372 719.02 181.923 719.02 189.247C719.02 196.978 717.514 203.896 714.503 209.999C711.492 216.103 707.138 221.27 701.441 225.502C695.745 229.734 688.95 232.948 681.056 235.146C673.162 237.343 664.332 238.441 654.566 238.441C645.777 238.441 637.11 237.302 628.565 235.023C620.021 232.663 612.249 229.123 605.25 224.403C598.333 219.683 592.799 213.661 588.648 206.337C584.498 199.013 582.423 190.346 582.423 180.336H619.166C619.166 185.87 620.021 190.549 621.729 194.374C623.438 198.199 625.839 201.291 628.932 203.651C632.105 206.011 635.849 207.72 640.162 208.778C644.557 209.836 649.358 210.365 654.566 210.365C660.914 210.365 666.122 209.47 670.191 207.68C674.342 205.889 677.394 203.407 679.347 200.233C681.381 197.06 682.398 193.479 682.398 189.491ZM776.881 131.264V236H741.603V103.92H774.684L776.881 131.264ZM771.998 165.321H762.232C762.232 156.125 763.331 147.662 765.528 139.931C767.807 132.118 771.103 125.364 775.416 119.667C779.811 113.889 785.222 109.413 791.651 106.239C798.08 103.065 805.527 101.479 813.99 101.479C819.85 101.479 825.221 102.374 830.104 104.164C834.986 105.873 839.177 108.599 842.677 112.343C846.257 116.005 849.024 120.806 850.978 126.747C852.931 132.606 853.907 139.646 853.907 147.865V236H818.751V151.771C818.751 145.749 817.937 141.111 816.31 137.855C814.682 134.6 812.363 132.322 809.352 131.02C806.422 129.717 802.882 129.066 798.731 129.066C794.174 129.066 790.187 130.002 786.769 131.874C783.432 133.746 780.665 136.35 778.468 139.687C776.271 142.942 774.643 146.767 773.585 151.161C772.527 155.556 771.998 160.276 771.998 165.321ZM850.611 161.293L838.038 162.88C838.038 154.254 839.096 146.238 841.212 138.832C843.409 131.426 846.624 124.916 850.855 119.301C855.169 113.686 860.499 109.332 866.847 106.239C873.194 103.065 880.519 101.479 888.819 101.479C895.167 101.479 900.945 102.414 906.153 104.286C911.362 106.076 915.797 108.965 919.459 112.953C923.202 116.859 926.051 121.986 928.004 128.334C930.038 134.682 931.056 142.453 931.056 151.649V236H895.777V151.649C895.777 145.546 894.964 140.907 893.336 137.733C891.79 134.478 889.511 132.24 886.5 131.02C883.57 129.717 880.071 129.066 876.002 129.066C871.77 129.066 868.067 129.921 864.894 131.63C861.72 133.257 859.075 135.536 856.959 138.466C854.843 141.396 853.256 144.813 852.198 148.72C851.14 152.545 850.611 156.736 850.611 161.293ZM1029.57 206.215V147.377C1029.57 143.145 1028.87 139.524 1027.49 136.513C1026.11 133.42 1023.95 131.02 1021.02 129.311C1018.17 127.602 1014.47 126.747 1009.91 126.747C1006.01 126.747 1002.63 127.439 999.781 128.822C996.933 130.124 994.736 132.037 993.189 134.56C991.643 137.001 990.87 139.89 990.87 143.227H955.714C955.714 137.611 957.016 132.281 959.62 127.235C962.224 122.19 966.008 117.755 970.973 113.93C975.937 110.023 981.837 106.972 988.673 104.774C995.59 102.577 1003.32 101.479 1011.87 101.479C1022.12 101.479 1031.23 103.188 1039.21 106.605C1047.19 110.023 1053.45 115.15 1058.01 121.986C1062.65 128.822 1064.97 137.367 1064.97 147.621V204.14C1064.97 211.382 1065.41 217.323 1066.31 221.962C1067.2 226.519 1068.51 230.507 1070.22 233.925V236H1034.69C1032.98 232.419 1031.68 227.943 1030.79 222.572C1029.97 217.12 1029.57 211.667 1029.57 206.215ZM1034.21 155.556L1034.45 175.453H1014.8C1010.16 175.453 1006.13 175.982 1002.71 177.04C999.293 178.098 996.485 179.604 994.288 181.557C992.091 183.428 990.463 185.626 989.405 188.148C988.429 190.671 987.94 193.438 987.94 196.449C987.94 199.46 988.632 202.187 990.016 204.628C991.399 206.988 993.393 208.86 995.997 210.243C998.601 211.545 1001.65 212.196 1005.15 212.196C1010.44 212.196 1015.04 211.138 1018.95 209.022C1022.85 206.907 1025.86 204.302 1027.98 201.21C1030.18 198.118 1031.32 195.188 1031.4 192.421L1040.67 207.313C1039.37 210.65 1037.58 214.109 1035.3 217.689C1033.11 221.27 1030.3 224.647 1026.88 227.821C1023.46 230.914 1019.35 233.477 1014.55 235.512C1009.75 237.465 1004.05 238.441 997.462 238.441C989.08 238.441 981.471 236.773 974.635 233.437C967.88 230.019 962.509 225.339 958.521 219.398C954.615 213.376 952.662 206.54 952.662 198.891C952.662 191.973 953.964 185.829 956.568 180.458C959.173 175.087 962.997 170.57 968.043 166.908C973.17 163.165 979.558 160.357 987.208 158.485C994.858 156.532 1003.73 155.556 1013.82 155.556H1034.21ZM1127.22 132.729V236H1092.07V103.92H1125.15L1127.22 132.729ZM1167.02 103.065L1166.41 135.658C1164.7 135.414 1162.62 135.211 1160.18 135.048C1157.82 134.804 1155.67 134.682 1153.71 134.682C1148.75 134.682 1144.43 135.333 1140.77 136.635C1137.19 137.855 1134.18 139.687 1131.74 142.128C1129.38 144.569 1127.59 147.54 1126.37 151.039C1125.23 154.538 1124.58 158.526 1124.42 163.002L1117.33 160.805C1117.33 152.26 1118.19 144.407 1119.9 137.245C1121.61 130.002 1124.09 123.695 1127.34 118.324C1130.68 112.953 1134.75 108.803 1139.55 105.873C1144.35 102.943 1149.85 101.479 1156.03 101.479C1157.98 101.479 1159.98 101.641 1162.01 101.967C1164.05 102.211 1165.72 102.577 1167.02 103.065ZM1254.42 103.92V128.822H1177.52V103.92H1254.42ZM1196.56 71.3271H1231.71V196.205C1231.71 200.03 1232.2 202.96 1233.18 204.994C1234.24 207.029 1235.78 208.453 1237.82 209.267C1239.85 209.999 1242.42 210.365 1245.51 210.365C1247.71 210.365 1249.66 210.284 1251.37 210.121C1253.16 209.877 1254.66 209.633 1255.88 209.389L1256.01 235.268C1253 236.244 1249.74 237.017 1246.24 237.587C1242.74 238.157 1238.88 238.441 1234.64 238.441C1226.91 238.441 1220.16 237.18 1214.38 234.657C1208.68 232.053 1204.29 227.903 1201.2 222.206C1198.1 216.509 1196.56 209.022 1196.56 199.745V71.3271ZM704.127 407.436V436H614.649V407.436H704.127ZM626.49 258.266V436H589.869V258.266H626.49ZM783.717 438.441C773.463 438.441 764.267 436.814 756.129 433.559C747.991 430.222 741.074 425.624 735.377 419.765C729.762 413.905 725.449 407.11 722.438 399.379C719.426 391.566 717.921 383.266 717.921 374.477V369.594C717.921 359.584 719.345 350.429 722.193 342.128C725.042 333.827 729.111 326.625 734.4 320.521C739.771 314.418 746.282 309.739 753.932 306.483C761.581 303.147 770.208 301.479 779.811 301.479C789.169 301.479 797.47 303.025 804.713 306.117C811.956 309.21 818.019 313.604 822.901 319.301C827.866 324.997 831.609 331.833 834.132 339.809C836.655 347.702 837.916 356.492 837.916 366.176V380.824H732.936V357.387H803.37V354.701C803.37 349.818 802.475 345.465 800.685 341.64C798.976 337.733 796.371 334.641 792.872 332.362C789.373 330.084 784.897 328.944 779.444 328.944C774.806 328.944 770.818 329.962 767.481 331.996C764.145 334.031 761.419 336.879 759.303 340.541C757.268 344.203 755.722 348.516 754.664 353.48C753.688 358.363 753.199 363.734 753.199 369.594V374.477C753.199 379.766 753.932 384.649 755.396 389.125C756.943 393.601 759.099 397.466 761.866 400.722C764.715 403.977 768.132 406.5 772.12 408.29C776.189 410.08 780.787 410.976 785.914 410.976C792.262 410.976 798.162 409.755 803.614 407.313C809.148 404.791 813.909 401.007 817.896 395.961L834.986 414.516C832.219 418.503 828.435 422.328 823.634 425.99C818.914 429.652 813.217 432.663 806.544 435.023C799.871 437.302 792.262 438.441 783.717 438.441ZM929.225 406.215V347.377C929.225 343.145 928.533 339.524 927.149 336.513C925.766 333.42 923.609 331.02 920.68 329.311C917.831 327.602 914.129 326.747 909.571 326.747C905.665 326.747 902.288 327.439 899.439 328.822C896.591 330.124 894.394 332.037 892.848 334.56C891.301 337.001 890.528 339.89 890.528 343.227H855.372C855.372 337.611 856.674 332.281 859.278 327.235C861.882 322.19 865.667 317.755 870.631 313.93C875.595 310.023 881.495 306.972 888.331 304.774C895.248 302.577 902.979 301.479 911.524 301.479C921.778 301.479 930.893 303.188 938.868 306.605C946.843 310.023 953.11 315.15 957.667 321.986C962.306 328.822 964.625 337.367 964.625 347.621V404.14C964.625 411.382 965.073 417.323 965.968 421.962C966.863 426.519 968.165 430.507 969.874 433.925V436H934.352C932.643 432.419 931.34 427.943 930.445 422.572C929.632 417.12 929.225 411.667 929.225 406.215ZM933.863 355.556L934.107 375.453H914.454C909.815 375.453 905.787 375.982 902.369 377.04C898.951 378.098 896.144 379.604 893.946 381.557C891.749 383.428 890.121 385.626 889.063 388.148C888.087 390.671 887.599 393.438 887.599 396.449C887.599 399.46 888.29 402.187 889.674 404.628C891.057 406.988 893.051 408.86 895.655 410.243C898.259 411.545 901.311 412.196 904.811 412.196C910.1 412.196 914.698 411.138 918.604 409.022C922.511 406.907 925.522 404.302 927.638 401.21C929.835 398.118 930.974 395.188 931.056 392.421L940.333 407.313C939.031 410.65 937.241 414.109 934.962 417.689C932.765 421.27 929.957 424.647 926.539 427.821C923.121 430.914 919.011 433.477 914.21 435.512C909.409 437.465 903.712 438.441 897.12 438.441C888.738 438.441 881.129 436.773 874.293 433.437C867.538 430.019 862.167 425.339 858.18 419.398C854.273 413.376 852.32 406.54 852.32 398.891C852.32 391.973 853.622 385.829 856.227 380.458C858.831 375.087 862.656 370.57 867.701 366.908C872.828 363.165 879.216 360.357 886.866 358.485C894.516 356.532 903.386 355.556 913.478 355.556H933.863ZM1026.88 332.729V436H991.725V303.92H1024.81L1026.88 332.729ZM1066.68 303.065L1066.07 335.658C1064.36 335.414 1062.28 335.211 1059.84 335.048C1057.48 334.804 1055.32 334.682 1053.37 334.682C1048.41 334.682 1044.09 335.333 1040.43 336.635C1036.85 337.855 1033.84 339.687 1031.4 342.128C1029.04 344.569 1027.25 347.54 1026.03 351.039C1024.89 354.538 1024.24 358.526 1024.07 363.002L1016.99 360.805C1016.99 352.26 1017.85 344.407 1019.56 337.245C1021.27 330.002 1023.75 323.695 1027 318.324C1030.34 312.953 1034.41 308.803 1039.21 305.873C1044.01 302.943 1049.5 301.479 1055.69 301.479C1057.64 301.479 1059.64 301.641 1061.67 301.967C1063.71 302.211 1065.37 302.577 1066.68 303.065ZM1117.7 332.118V436H1082.54V303.92H1115.5L1117.7 332.118ZM1112.57 365.321H1103.05C1103.05 355.556 1104.31 346.767 1106.84 338.954C1109.36 331.06 1112.9 324.346 1117.46 318.812C1122.01 313.197 1127.43 308.925 1133.69 305.995C1140.04 302.984 1147.12 301.479 1154.93 301.479C1161.12 301.479 1166.77 302.374 1171.9 304.164C1177.03 305.954 1181.42 308.803 1185.08 312.709C1188.83 316.615 1191.68 321.783 1193.63 328.212C1195.66 334.641 1196.68 342.494 1196.68 351.771V436H1161.28V351.649C1161.28 345.79 1160.47 341.233 1158.84 337.978C1157.21 334.722 1154.81 332.444 1151.64 331.142C1148.54 329.758 1144.72 329.066 1140.16 329.066C1135.44 329.066 1131.33 330.002 1127.83 331.874C1124.42 333.746 1121.57 336.35 1119.29 339.687C1117.09 342.942 1115.42 346.767 1114.28 351.161C1113.14 355.556 1112.57 360.276 1112.57 365.321ZM1260.52 303.92V436H1225.25V303.92H1260.52ZM1223.05 269.496C1223.05 264.369 1224.84 260.137 1228.42 256.801C1232 253.464 1236.8 251.796 1242.82 251.796C1248.76 251.796 1253.52 253.464 1257.11 256.801C1260.77 260.137 1262.6 264.369 1262.6 269.496C1262.6 274.623 1260.77 278.855 1257.11 282.191C1253.52 285.528 1248.76 287.196 1242.82 287.196C1236.8 287.196 1232 285.528 1228.42 282.191C1224.84 278.855 1223.05 274.623 1223.05 269.496ZM1324 332.118V436H1288.84V303.92H1321.8L1324 332.118ZM1318.87 365.321H1309.35C1309.35 355.556 1310.61 346.767 1313.14 338.954C1315.66 331.06 1319.2 324.346 1323.76 318.812C1328.31 313.197 1333.72 308.925 1339.99 305.995C1346.34 302.984 1353.42 301.479 1361.23 301.479C1367.42 301.479 1373.07 302.374 1378.2 304.164C1383.33 305.954 1387.72 308.803 1391.38 312.709C1395.13 316.615 1397.97 321.783 1399.93 328.212C1401.96 334.641 1402.98 342.494 1402.98 351.771V436H1367.58V351.649C1367.58 345.79 1366.77 341.233 1365.14 337.978C1363.51 334.722 1361.11 332.444 1357.94 331.142C1354.84 329.758 1351.02 329.066 1346.46 329.066C1341.74 329.066 1337.63 330.002 1334.13 331.874C1330.71 333.746 1327.87 336.35 1325.59 339.687C1323.39 342.942 1321.72 346.767 1320.58 351.161C1319.44 355.556 1318.87 360.276 1318.87 365.321ZM1513.33 303.92H1545.19V431.605C1545.19 443.65 1542.51 453.863 1537.13 462.245C1531.85 470.709 1524.44 477.097 1514.92 481.41C1505.4 485.805 1494.33 488.002 1481.71 488.002C1476.18 488.002 1470.32 487.27 1464.14 485.805C1458.03 484.34 1452.17 482.061 1446.56 478.969C1441.02 475.876 1436.39 471.97 1432.64 467.25L1448.15 446.498C1452.21 451.218 1456.93 454.88 1462.31 457.484C1467.68 460.17 1473.62 461.513 1480.13 461.513C1486.48 461.513 1491.85 460.333 1496.24 457.973C1500.64 455.694 1504.01 452.317 1506.37 447.841C1508.73 443.446 1509.91 438.116 1509.91 431.85V334.438L1513.33 303.92ZM1424.46 371.547V368.983C1424.46 358.892 1425.68 349.737 1428.13 341.518C1430.65 333.217 1434.19 326.096 1438.75 320.155C1443.38 314.215 1449 309.617 1455.59 306.361C1462.18 303.106 1469.63 301.479 1477.93 301.479C1486.72 301.479 1494.08 303.106 1500.03 306.361C1505.97 309.617 1510.85 314.255 1514.67 320.277C1518.5 326.218 1521.47 333.257 1523.58 341.396C1525.78 349.452 1527.49 358.282 1528.71 367.885V373.5C1527.49 382.696 1525.66 391.241 1523.22 399.135C1520.78 407.029 1517.56 413.946 1513.58 419.887C1509.59 425.746 1504.62 430.303 1498.68 433.559C1492.82 436.814 1485.82 438.441 1477.69 438.441C1469.55 438.441 1462.18 436.773 1455.59 433.437C1449.08 430.1 1443.51 425.421 1438.87 419.398C1434.23 413.376 1430.65 406.296 1428.13 398.158C1425.68 390.02 1424.46 381.15 1424.46 371.547ZM1459.62 368.983V371.547C1459.62 376.999 1460.15 382.086 1461.21 386.806C1462.26 391.526 1463.89 395.717 1466.09 399.379C1468.37 402.96 1471.18 405.767 1474.51 407.802C1477.93 409.755 1481.96 410.731 1486.6 410.731C1493.03 410.731 1498.28 409.389 1502.34 406.703C1506.41 403.936 1509.47 400.152 1511.5 395.351C1513.53 390.549 1514.71 385.015 1515.04 378.749V362.758C1514.88 357.631 1514.19 353.033 1512.96 348.964C1511.74 344.813 1510.04 341.273 1507.84 338.344C1505.64 335.414 1502.79 333.135 1499.29 331.508C1495.79 329.88 1491.64 329.066 1486.84 329.066C1482.2 329.066 1478.17 330.124 1474.76 332.24C1471.42 334.275 1468.61 337.082 1466.33 340.663C1464.14 344.244 1462.47 348.476 1461.33 353.358C1460.19 358.16 1459.62 363.368 1459.62 368.983Z" fill="white"/>
<defs>
<filter id="filter0_d_801_19" x="0" y="0" width="449.366" height="505.749" filterUnits="userSpaceOnUse" color-interpolation-filters="sRGB">
<feFlood flood-opacity="0" result="BackgroundImageFix"/>
<feColorMatrix in="SourceAlpha" type="matrix" values="0 0 0 0 0 0 0 0 0 0 0 0 0 0 0 0 0 0 127 0" result="hardAlpha"/>
<feOffset dx="-1" dy="2"/>
<feGaussianBlur stdDeviation="1"/>
<feColorMatrix type="matrix" values="0 0 0 0 0 0 0 0 0 0 0 0 0 0 0 0 0 0 0.251 0"/>
<feBlend mode="normal" in2="BackgroundImageFix" result="effect1_dropShadow_801_19"/>
<feBlend mode="normal" in="SourceGraphic" in2="effect1_dropShadow_801_19" result="shape"/>
</filter>
<filter id="filter1_d_801_19" x="74.4551" y="93.3197" width="301.979" height="304.855" filterUnits="userSpaceOnUse" color-interpolation-filters="sRGB">
<feFlood flood-opacity="0" result="BackgroundImageFix"/>
<feColorMatrix in="SourceAlpha" type="matrix" values="0 0 0 0 0 0 0 0 0 0 0 0 0 0 0 0 0 0 127 0" result="hardAlpha"/>
<feOffset dy="3"/>
<feGaussianBlur stdDeviation="3"/>
<feColorMatrix type="matrix" values="0 0 0 0 0 0 0 0 0 0 0 0 0 0 0 0 0 0 0.471 0"/>
<feBlend mode="normal" in2="BackgroundImageFix" result="effect1_dropShadow_801_19"/>
<feBlend mode="normal" in="SourceGraphic" in2="effect1_dropShadow_801_19" result="shape"/>
</filter>
<linearGradient id="paint0_linear_801_19" x1="374.598" y1="79.2471" x2="86.9179" y2="509.56" gradientUnits="userSpaceOnUse">
<stop stop-color="white"/>
<stop offset="0.454293" stop-color="white"/>
<stop offset="1" stop-color="white"/>
</linearGradient>
</defs>
</svg>
